<svg width="171" height="170" viewBox="0 0 171 170" fill="none" xmlns="http://www.w3.org/2000/svg">
<path fill-rule="evenodd" clip-rule="evenodd" d="M85.1004 13.9512C113.011 13.9512 136.41 33.1438 142.733 58.9917H139.553C133.304 34.856 111.301 17.0349 85.1096 17.0349C58.9186 17.0349 36.9157 34.8652 30.6661 58.9917H27.4766C33.8001 33.1438 57.1898 13.9512 85.1004 13.9512ZM66.8173 150.14C65.8466 150.14 65.0515 149.348 65.0515 148.373C65.0515 147.406 65.8373 146.615 66.8173 146.615C66.8543 146.615 66.8889 146.619 66.9236 146.624C66.9583 146.628 66.993 146.633 67.0299 146.633V146.615H103.4C104.37 146.615 105.165 147.397 105.165 148.373C105.165 149.348 104.38 150.14 103.4 150.14H67.0299V150.122C66.9652 150.131 66.8913 150.14 66.8173 150.14ZM59.0978 142.555C58.127 142.555 57.332 141.773 57.332 140.797C57.332 139.83 58.1178 139.039 59.0978 139.039H111.119C112.09 139.039 112.885 139.83 112.885 140.797C112.885 141.763 112.099 142.555 111.119 142.555H59.0978ZM115.742 131.463C116.712 131.463 117.507 132.245 117.507 133.221C117.507 134.188 116.722 134.979 115.742 134.979H54.4845C53.5138 134.979 52.7188 134.188 52.7188 133.221C52.7188 132.255 53.5046 131.463 54.4845 131.463H115.742Z" fill="#00B2E3"/>
<path fill-rule="evenodd" clip-rule="evenodd" d="M85.3106 162.965C128.586 162.965 163.671 128.031 163.671 84.9421V84.9329C163.671 41.8438 128.586 6.91044 85.3106 6.91044C42.035 6.91044 6.95037 41.853 6.95037 84.9421C6.95037 128.031 42.035 162.965 85.3106 162.965ZM85.44 0.724609C132.155 0.724609 170.022 38.4287 170.013 84.9329V84.9421C170.013 131.446 132.146 169.15 85.44 169.15C38.7345 169.15 0.867188 131.455 0.867188 84.9421C0.867188 38.4287 38.7253 0.724609 85.44 0.724609ZM97.6363 46.5671L97.6364 46.5671L97.6365 46.5672C97.747 46.6108 97.8938 46.6686 97.9386 46.7132V46.6856C97.9607 46.7076 98.0054 46.7414 98.0536 46.7778C98.1466 46.8481 98.2527 46.9283 98.2344 46.9525C98.2159 46.9986 98.1327 47.063 98.0865 47.063C98.031 47.063 97.9848 47.0814 98.031 47.1182C98.0772 47.1643 98.0772 47.2011 98.0495 47.2471C98.0218 47.2931 97.994 47.3208 97.9478 47.3208C97.9427 47.3218 97.9355 47.3228 97.9268 47.3239C97.918 47.3249 97.9077 47.326 97.8963 47.3272L97.8855 47.3283C97.8062 47.3365 97.689 47.3486 97.689 47.376L97.6876 47.3812C97.6789 47.4155 97.6722 47.4417 97.7074 47.468C97.7188 47.4765 97.7311 47.4824 97.7413 47.4873C97.7641 47.4983 97.7764 47.5042 97.7444 47.5233C97.7232 47.5338 97.6789 47.5471 97.6307 47.5616C97.5532 47.5848 97.4657 47.611 97.4486 47.6337C97.4209 47.6613 97.1158 48.0111 97.1343 48.0387C97.1527 48.0664 97.2175 48.3333 97.199 48.3701C97.1805 48.407 97.162 48.4438 97.162 48.4622C97.1712 48.4714 97.1712 48.5265 97.1712 48.5909V48.5911C97.1712 48.6135 97.1715 48.6376 97.1719 48.6623C97.1723 48.6869 97.1729 48.712 97.1734 48.7366C97.1754 48.829 97.1773 48.9136 97.1712 48.9316C97.1683 48.9365 97.1649 48.9419 97.1613 48.9477L97.1532 48.9605C97.1223 49.0094 97.0788 49.078 97.0788 49.1157C97.0788 49.1212 97.0793 49.1276 97.0801 49.1348C97.0814 49.1458 97.0835 49.1586 97.0857 49.1721C97.0943 49.2249 97.1048 49.2897 97.0788 49.3091L97.0745 49.3122C97.037 49.3401 96.9771 49.3848 96.9771 49.4379C96.9863 49.484 96.9956 49.5484 96.9771 49.5852C96.9655 49.614 96.8997 49.6861 96.852 49.7382L96.8519 49.7383C96.8234 49.7694 96.8014 49.7935 96.8014 49.7969C96.8014 49.7976 96.8016 49.7988 96.802 49.8004C96.8026 49.8032 96.8036 49.8073 96.8048 49.8123C96.813 49.8453 96.8312 49.9184 96.8014 49.9258C96.7927 49.928 96.7789 49.9296 96.7634 49.9315C96.7128 49.9375 96.6437 49.9458 96.672 49.981C96.709 50.0178 96.709 50.0639 96.709 50.0915C96.709 50.1007 96.6987 50.1314 96.6857 50.1703C96.6597 50.248 96.6227 50.3584 96.635 50.3953C96.6535 50.4505 96.6905 50.6254 96.6813 50.6622L96.6769 50.6789L96.6769 50.679C96.664 50.7282 96.6372 50.8301 96.6535 50.8463C96.672 50.8463 96.6997 50.8831 96.7367 50.9476C96.7737 51.0304 96.8199 51.1869 96.7737 51.4262C96.7737 51.4907 96.7737 51.5275 96.8384 51.5827C96.9031 51.6379 97.0788 51.8036 97.0695 51.8405C97.0695 51.8524 97.0627 51.8663 97.0557 51.8806C97.0412 51.9102 97.0258 51.9415 97.0695 51.9601C97.1343 51.9877 97.2267 52.0614 97.2267 52.1074C97.23 52.1239 97.231 52.171 97.2321 52.2268C97.2341 52.327 97.2366 52.4553 97.2544 52.4848L97.2591 52.491C97.292 52.5344 97.3829 52.6542 97.3654 52.7242C97.3629 52.7342 97.3598 52.7476 97.3562 52.7638C97.3331 52.8661 97.2856 53.0769 97.1897 53.212C97.2082 53.3501 97.2267 53.5526 97.2082 53.5894C97.2007 53.6043 97.1902 53.6132 97.1804 53.6215C97.1659 53.6338 97.1527 53.6449 97.1527 53.6723C97.1527 53.6858 97.1551 53.7056 97.1578 53.7278C97.1642 53.7814 97.1723 53.8488 97.1527 53.8748C97.1343 53.9024 97.0233 54.1141 97.0418 54.1509L97.0456 54.1584C97.0695 54.2055 97.1424 54.349 97.125 54.4271C97.1105 54.4633 97.1016 54.511 97.094 54.5521L97.094 54.5521C97.092 54.5632 97.09 54.5738 97.088 54.5836C97.0788 54.6204 97.0695 54.648 97.0603 54.6664C97.0519 54.6775 97.0352 54.6936 97.0164 54.7117C96.9727 54.7537 96.918 54.8064 96.9309 54.8321C96.9494 54.8689 97.0418 55.2095 97.0418 55.2095C97.0418 55.2095 96.9586 55.4765 96.9771 55.4949C96.9956 55.5041 97.0418 55.5869 97.0418 55.5961L97.0414 55.6015C97.0391 55.627 97.0303 55.7267 97.0973 55.7434C97.1057 55.7458 97.1137 55.7479 97.1213 55.7499L97.1214 55.7499C97.1717 55.7631 97.2038 55.7715 97.236 55.8355C97.2497 55.8629 97.2916 55.917 97.3389 55.9781C97.4185 56.081 97.5133 56.2035 97.5133 56.2497C97.5133 56.3326 97.541 56.443 97.5688 56.4798C97.5714 56.4851 97.5752 56.4917 97.5797 56.4993C97.5823 56.5036 97.5851 56.5084 97.5882 56.5134C97.6167 56.5607 97.6612 56.6344 97.6612 56.6915C97.6612 56.7376 97.689 56.8941 97.7074 56.9953L94.4162 57.069L90.0156 57.1794H89.6366C89.3852 57.1794 89.0202 57.1766 88.5781 57.1731H88.5779H88.5776C87.8981 57.1678 87.0363 57.161 86.1235 57.161C83.7154 57.1531 80.9452 57.1384 80.1975 57.1344L80.1957 57.1344L80.1932 57.1344L80.0034 57.1334C79.9849 57.1334 79.9849 57.1426 79.9849 57.161C79.9786 57.211 79.9979 57.3163 80.0109 57.3873C80.0171 57.4208 80.0219 57.4467 80.0219 57.4556C80.0277 57.4791 79.8982 57.7649 79.8036 57.9735C79.7499 58.0918 79.7075 58.1853 79.7075 58.192C79.7002 58.1992 79.7275 58.2639 79.7484 58.3134C79.7518 58.3214 79.755 58.329 79.7579 58.3359C79.7597 58.3404 79.7615 58.3446 79.763 58.3485C79.7707 58.3867 80.1039 58.7046 80.2375 58.8321C80.2648 58.8581 80.2837 58.8761 80.29 58.8824C80.3269 58.91 80.4194 59.1769 80.4286 59.2045C80.4379 59.2322 80.595 59.3518 80.6135 59.361C80.632 59.3702 80.7245 59.3979 80.7522 59.3979C80.7799 59.3979 80.8262 59.4899 80.8354 59.5083C80.8447 59.5359 80.9463 59.5359 80.9741 59.5359C80.9949 59.5359 81.1196 59.6291 81.1924 59.6835C81.2167 59.7016 81.2352 59.7154 81.2422 59.72C81.2607 59.7384 81.3254 59.8489 81.3439 59.8857C81.3579 59.9136 81.3453 60.074 81.3384 60.1619L81.3364 60.1881C81.3353 60.2025 81.3346 60.2128 81.3346 60.2171C81.3346 60.2398 81.3034 60.2687 81.282 60.2885L81.2752 60.2948L81.2699 60.2999C81.2422 60.3184 81.1867 60.5485 81.1867 60.5853C81.1775 60.6129 81.1497 60.6313 81.1128 60.6497C81.0844 60.6638 81.0344 60.7806 81.0042 60.851C80.995 60.8725 80.9876 60.8897 80.9833 60.8983C80.972 60.9208 80.9815 60.9606 80.9905 60.9986C80.9963 61.0227 81.0018 61.0461 81.0018 61.064C81.0111 61.11 81.0943 61.202 81.0943 61.202C81.0943 61.2113 81.0665 61.2389 81.0665 61.2389C81.0573 61.2389 81.0295 61.3033 81.0295 61.3033L81.085 61.4046L81.3346 61.6071L81.2977 61.7267L81.0665 61.782L80.9648 61.9201C80.9648 61.9201 80.9556 61.9753 80.9463 62.0489C80.9371 62.1226 80.6967 62.3711 80.6967 62.3711L80.6413 62.1502L80.5858 62.1686V62.3895L80.5303 62.2238L80.4749 62.2054V62.3159L80.4286 62.3527L80.4379 62.3803H80.5026L80.4656 62.5368L80.3547 62.5184L80.3084 62.6381L80.253 62.5368L80.2067 62.5276V62.6196L80.142 62.592L80.0958 62.6841L80.0403 62.546L80.1143 62.3159H80.0403L80.0034 62.4171L79.9202 62.2054L79.8277 62.2514V62.2975L79.9017 62.3251L79.8185 62.3803L79.8924 62.4171V62.5L79.9664 62.546L79.8369 62.6749V62.7301L80.0311 62.7669L80.179 62.7025L80.29 62.7393L80.4379 62.6381L80.5118 62.6749L80.3269 62.7761H80.1883L80.216 62.8406L80.1235 62.8866H80.216L80.1975 62.9326L79.7815 63.0615L78.7183 63.2456L78.3393 63.2824L77.3778 63.264L76.971 63.3376L76.9525 63.2916L77.0357 63.2088L77.3963 63.1719L77.4425 63.2088L77.4795 63.1627C77.4795 63.1627 77.4425 63.1259 77.4333 63.1075L77.4774 63.0734C77.526 63.0357 77.543 63.0225 77.5621 63.0179C77.5723 63.0155 77.5831 63.0155 77.5997 63.0155C77.6514 63.0069 77.6629 63.0223 77.6868 63.0543L77.6921 63.0615C77.7661 63.1627 77.877 63.1627 77.877 63.1627H78.1821L78.3855 63.0707H78.5796C78.6166 63.0707 78.7553 63.0339 78.7553 63.0339L78.9217 62.7853L78.9587 62.8498V62.997L79.0604 62.9694L79.0789 62.905L78.9957 62.8129L78.9772 62.7209H78.8755C78.8755 62.7209 78.857 62.7393 78.8293 62.7853C78.7645 62.6565 78.6628 62.5828 78.5149 62.4816C78.367 62.3803 78.2838 62.1594 78.2838 62.1594L78.3115 62.0489L78.4317 62.0029L78.33 61.7912L78.2098 61.9385L78.2561 62.0489L78.2376 62.0857L78.0712 62.0305L77.7938 61.8096L77.7106 61.3401L77.6089 61.2481L77.8493 60.797V60.6774L77.7753 60.4104L77.7568 60.0146C77.7568 60.0054 77.7106 59.987 77.7106 59.987V59.9502C77.7106 59.9409 77.6459 59.8489 77.6459 59.8489C77.6367 59.8397 77.6829 59.7661 77.6829 59.7661C77.6921 59.7568 77.3038 59.72 77.3038 59.72C77.3038 59.72 77.2299 59.6924 77.1652 59.6648C77.1452 59.6563 77.1235 59.6469 77.1031 59.638C77.0938 59.634 77.0848 59.6301 77.0764 59.6264L77.0172 59.6004C76.9987 59.5912 76.971 59.628 76.971 59.628L76.9895 59.7568C76.9895 59.7568 76.9618 59.7845 76.8601 59.8489C76.7584 59.9133 76.8046 60.2907 76.8046 60.2907L76.7029 60.4656L76.6105 60.5577L76.5088 60.4841C76.5088 60.4841 76.4348 60.346 76.4348 60.3368C76.4286 60.3306 76.4595 60.2877 76.4834 60.2542L76.4835 60.2541C76.4955 60.2375 76.5057 60.2232 76.5088 60.2171C76.518 60.1987 76.4903 60.1895 76.4718 60.1895C76.4533 60.1895 76.4071 60.2263 76.4071 60.2263L76.3978 60.3276H76.3239L76.3054 60.4564L76.4163 60.438L76.4718 60.5485L76.6012 60.6313L76.6474 60.7878L76.4995 61.0824L76.5273 61.3769L76.4348 61.4414L76.481 61.4782V61.7452L76.4348 62.1962L76.2314 62.6381L76.1759 62.5368L76.2776 62.4263L76.2592 62.3619L76.2037 62.4539L76.1667 62.3711L76.102 62.3987L76.1205 62.5L75.8524 62.5736L75.8801 62.4632L75.8154 62.3987L75.8801 62.3619L75.9078 62.187L75.7322 62.233C75.7229 62.233 75.4179 62.0489 75.4179 62.0489C75.4179 62.0489 75.2515 62.0397 75.233 62.0397C75.2052 62.0305 75.233 62.0029 75.233 62.0029C75.233 61.9937 75.1683 61.9385 75.1683 61.9385C75.159 61.9293 75.085 62.0949 75.085 62.1134C75.0758 62.1318 75.0388 62.141 75.0111 62.141C75.1035 61.9937 74.8909 61.8924 74.8909 61.8924H74.7245C74.6968 61.8924 74.6783 61.9937 74.6783 62.0121C74.669 62.0305 74.6505 61.9661 74.6505 61.9477C74.6505 61.9201 74.6228 61.9201 74.6043 61.9201C74.5858 61.9108 74.5581 61.9753 74.5581 61.9753C74.5581 61.9753 74.5673 61.9937 74.5858 62.0213C74.5581 62.0029 74.4841 61.9937 74.4379 61.9937L74.29 56.2313L74.1698 51.5735L74.1328 49.9718L74.5211 46.7132L75.159 41.2822L75.6675 36.9558L76.1575 32.7767L76.4071 30.6779L76.6567 28.5884L76.9433 26.1582C76.9433 26.1582 76.9803 26.1122 76.9433 26.0846C76.934 26.0754 76.9248 26.0754 76.9155 26.0754C76.8416 26.0478 76.6197 25.8913 76.5735 25.8084C76.5649 25.7914 76.546 25.7588 76.5217 25.7168C76.4143 25.5314 76.2015 25.1641 76.3146 25.1641C76.4071 25.1733 80.253 25.2653 82.7214 25.3205C83.8955 25.3482 84.7553 25.3666 84.7553 25.3666H85.4949L88.5734 25.3482H93.1589L93.3068 26.3331L93.3901 26.8854L93.7968 29.0302L94.3608 32.0127L94.6196 33.4947L95.3038 37.37L95.8215 40.3249L96.1635 42.2303C96.1635 42.2303 96.182 42.3592 96.256 42.3316C96.3299 42.304 96.4039 42.3408 96.3577 42.4052C96.3115 42.4697 96.2837 42.5249 96.2837 42.5709C96.2837 42.6169 96.3022 42.709 96.3484 42.7274C96.3947 42.7458 96.6258 42.8839 96.5796 42.9391C96.5703 42.9483 96.5592 42.9568 96.5476 42.965C96.5429 42.9684 96.5382 42.9717 96.5334 42.9749C96.4909 43.0043 96.4487 43.0334 96.4686 43.0864C96.4871 43.1232 96.5056 43.16 96.5333 43.1785C96.5611 43.1969 96.5796 43.2153 96.6073 43.2153C96.6628 43.2429 96.6628 43.2705 96.6535 43.3073C96.6443 43.3534 96.635 43.4178 96.6813 43.5375C96.6995 43.5847 96.7307 43.6449 96.7601 43.7015L96.7602 43.7016C96.8052 43.7884 96.846 43.8669 96.8292 43.878C96.7922 43.8965 96.7367 43.9977 96.7922 44.0161C96.7989 44.0183 96.8059 44.0203 96.813 44.0221L96.8298 44.0263C96.8746 44.0372 96.9136 44.0466 96.8846 44.0898C96.8477 44.145 96.8569 44.1818 96.8846 44.237C96.8926 44.2529 96.8983 44.271 96.9047 44.2917L96.9048 44.2917C96.9208 44.3429 96.9416 44.4095 97.0141 44.4948C97.0341 44.5164 97.0608 44.5444 97.0912 44.5762C97.229 44.7204 97.4427 44.9441 97.4578 45.0195V45.0379C97.4635 45.0719 97.4684 45.1243 97.4736 45.1819C97.4855 45.3111 97.4998 45.4663 97.5318 45.4981C97.5377 45.504 97.5455 45.5109 97.5545 45.5185C97.5642 45.5266 97.5753 45.5356 97.5872 45.5452C97.6518 45.5976 97.7372 45.6667 97.7167 45.7007C97.714 45.7042 97.7109 45.7081 97.7073 45.7125L97.7018 45.7192C97.6675 45.7609 97.6111 45.8296 97.6427 45.8848C97.6797 45.9492 97.6982 45.986 97.652 45.986C97.6058 45.986 97.541 46.0136 97.5965 46.0504C97.6044 46.0567 97.612 46.0624 97.619 46.0677C97.6532 46.0935 97.6734 46.1088 97.6427 46.1241C97.6176 46.1491 97.6077 46.1741 97.5923 46.2128L97.5873 46.2253C97.574 46.2518 97.5416 46.2783 97.5176 46.2979L97.5175 46.2979C97.5081 46.3056 97.5 46.3122 97.4948 46.3174L97.4856 46.3202C97.4798 46.3218 97.4759 46.323 97.4731 46.3255C97.4671 46.331 97.4671 46.3431 97.4671 46.3818C97.4671 46.3913 97.4665 46.4005 97.466 46.4094C97.4634 46.4526 97.4613 46.4894 97.5226 46.5199C97.5453 46.5312 97.5872 46.5478 97.6363 46.5671ZM159.018 71.7231H147.619V91.6982H159.018V87.2981H152.824V83.8554H158.685V79.4554H152.824V76.1323H159.018V71.7323V71.7231ZM145.307 76.1231V71.7231H131.569V76.1231H135.841V91.689H141.045V76.1231H145.307ZM119.412 84.3893L121.603 77.9181L123.859 84.3893H119.412ZM126.475 91.6982H132.041L124.488 71.7231H118.802L111.101 91.6982H116.602L117.952 88.3475H125.227L126.457 91.6982H126.475ZM91.3816 71.7231L99.8037 91.6982H103.862L112.405 71.7231H106.747L101.875 83.883L97.058 71.7231H91.3816ZM79.8624 76.3072C81.2491 76.3072 82.7838 76.8411 83.8932 77.8905C84.8269 78.7926 85.5203 80.1642 85.5203 81.7198C85.5203 83.2755 84.8269 84.6194 83.8932 85.5492C82.9594 86.4789 81.6374 87.1048 79.8624 87.1048C78.0874 87.1048 76.7653 86.4513 75.8039 85.5215C75.055 84.8036 74.2137 83.5793 74.2137 81.8119C74.2137 80.4035 74.7222 78.9399 75.8039 77.8905C76.8855 76.8135 78.4202 76.3072 79.8624 76.3072ZM90.9286 81.729C90.9286 79.0596 89.9024 76.252 87.7668 74.2453C85.7237 72.303 82.8393 71.2812 79.8624 71.2812C76.8855 71.2812 74.0011 72.303 71.9579 74.2453C69.8224 76.252 68.7962 79.0688 68.7962 81.729C68.7962 84.3893 69.8224 87.1508 71.9579 89.1852C74.0011 91.1275 76.8855 92.1492 79.8624 92.1492C82.8393 92.1492 85.7237 91.1275 87.7668 89.1852C89.9024 87.1508 90.9286 84.3617 90.9286 81.729ZM50.6946 91.6982V79.483L60.2908 91.6982H65.4957V71.7231H60.2908V83.9383L50.6946 71.7231H45.4897V91.6982H50.6946ZM26.4913 91.6982V79.483L36.0875 91.6982H41.2924V71.7231H36.0875V83.9383L26.4913 71.7231H21.2864V91.6982H26.4913ZM11.875 91.6982H17.0799V71.7231H11.875V91.6982ZM111.72 101.465L108.697 116.847H110.925L112.469 108.203L116.601 117.5L120.854 108.212L122.241 116.847H124.469L121.751 101.465L116.647 112.585L111.72 101.465ZM33.5946 113.376H39.7425L41.2494 116.846H43.6254L36.7656 101.648L29.6562 116.846H31.9952L33.5946 113.376ZM36.7286 106.49L38.855 111.351H34.4914L36.7286 106.49ZM50.6399 114.813V102.542V102.533H48.4766V116.838H54.8648V114.813H50.6399ZM69.2034 113.376H63.0555L61.4562 116.846H59.1172L66.2266 101.648L73.0863 116.846H70.7104L69.2034 113.376ZM68.3159 111.351L66.1896 106.49L63.9523 111.351H68.3159ZM77.9311 102.541V116.846H81.2038C82.1838 116.846 83.0066 116.754 83.6537 116.579C84.2454 116.395 84.7816 116.063 85.2624 115.585C86.0574 114.811 86.455 113.863 86.455 112.749C86.455 111.893 86.2331 111.148 85.7893 110.503C85.3548 109.85 84.7539 109.399 83.9866 109.141C84.7724 108.432 85.1699 107.558 85.1699 106.536C85.1699 105.975 85.0497 105.422 84.8094 104.87C84.569 104.327 84.2547 103.876 83.8479 103.508C83.4504 103.158 82.9604 102.909 82.3872 102.762C81.814 102.615 81.0467 102.541 80.0852 102.541H77.9311ZM80.7786 108.681H80.0944L80.1037 108.672V104.511H80.871C81.6014 104.511 82.1561 104.686 82.5443 105.036C82.9234 105.385 83.1175 105.873 83.1175 106.573C83.1175 107.272 82.9326 107.788 82.5536 108.147C82.1746 108.506 81.5829 108.681 80.7786 108.681ZM81.435 114.811H80.0944V110.494H81.1946C82.3595 110.494 83.173 110.697 83.626 111.111C84.0883 111.534 84.3194 112.031 84.3194 112.667C84.3194 113.302 84.0698 113.826 83.589 114.241C83.136 114.618 82.4149 114.811 81.435 114.811ZM100.461 113.376H94.3134L92.714 116.846H90.375L97.4844 101.648L104.344 116.846H101.968L100.461 113.376ZM99.5737 111.351L97.4474 106.49L95.2101 111.351H99.5737ZM138.992 113.376H132.845L131.245 116.846H128.906L136.016 101.648L142.875 116.846H140.499L138.992 113.376ZM138.105 111.351L135.979 106.49L133.741 111.351H138.105Z" fill="white"/>
</svg>
